<svg viewBox="0 0 139 32" fill="none" xmlns="http://www.w3.org/2000/svg">
<g clip-path="url(#clip0_64_2532)">
<path d="M5.95169 25.8318H9.34618V9.5237H15.3265V6.40995H0V9.5237H5.95169V25.8318Z" fill="black"/>
<path d="M17.3088 25.8318H20.7033V17.436H30.1044V25.8318H33.4989V6.40995H30.1044V14.3223H20.7033V6.40995H17.3088V25.8318Z" fill="black"/>
<path fill-rule="evenodd" clip-rule="evenodd" d="M43.5606 11.5213L38.9901 25.8318H35.4238L41.8932 6.40995H47.3582L53.7989 25.8318H50.2327L45.6312 11.5213L44.6269 8.18009H44.5672L43.5606 11.5213Z" fill="black"/>
<path d="M55.7527 25.8318H58.973V12.0355L58.9158 8.5237H59.0017L59.9511 11.8934L64.1781 25.8318H69.4976L73.696 11.8934L74.6454 8.5237H74.7313L74.6741 12.0355V25.8318H78.0375V6.40995H72.1145L66.9667 23.8341L61.8213 6.40995H55.7527V25.8318Z" fill="black"/>
<path d="M81.0264 25.8318H94.3395V22.7488H84.4209V17.4076H93.5929V14.4076H84.4209V9.49526H94.3395V6.40995H81.0264V25.8318Z" fill="black"/>
<path d="M102.076 17.3483L105.038 18.0047C106.906 18.4052 107.941 19.1754 107.941 20.5758C107.941 22.2322 106.56 23.2038 104.232 23.2038C101.183 23.2038 99.9478 21.4905 99.8619 19.4905H96.4412C96.6702 22.9455 98.8266 26.1161 104.089 26.1161C108.488 26.1161 111.393 23.9455 111.393 20.3175C111.393 17.09 109.122 15.4337 105.988 14.8057L103.025 14.1493C101.186 13.7488 100.122 13.064 100.122 11.6635C100.122 10.0355 101.503 9.03555 103.803 9.03555C106.851 9.03555 108.058 10.7488 108.116 12.7488H111.567C111.336 9.29384 109.208 6.12322 103.92 6.12322C99.578 6.12322 96.6726 8.29384 96.6726 11.9218C96.6726 15.1493 98.9435 16.7204 102.078 17.3483H102.076Z" fill="black"/>
<mask id="mask0_64_2532" style="mask-type:luminance" maskUnits="userSpaceOnUse" x="114" y="6" width="25" height="24">
<path d="M114.072 25.8318V6.40995H117.464V25.8341H114.072V25.8318ZM128.795 28.8602V26.1185C123.59 25.9479 119.852 22.0616 119.852 16.1209C119.852 10.1801 123.764 6.12322 129.138 6.12322C134.513 6.12322 138.425 10.0355 138.425 16.1209C138.425 21.7204 135.119 25.4621 130.431 26.0332L137.275 26.8057V29.8626L128.793 28.8626L128.795 28.8602ZM123.332 16.5498C123.332 20.4905 125.692 23.0332 129.141 23.0332C132.59 23.0332 134.921 20.4905 134.921 16.5498V15.6919C134.921 11.7512 132.593 9.20853 129.141 9.20853C125.689 9.20853 123.332 11.7512 123.332 15.6919V16.5498Z" fill="white"/>
</mask>
<g mask="url(#mask0_64_2532)">
<rect width="25.1903" height="24" transform="matrix(1 0 0 -1 113.81 30)" fill="url(#paint0_linear_64_2532)"/>
</g>
</g>
<defs>
<linearGradient id="paint0_linear_64_2532" x1="-0.000392289" y1="23.9999" x2="23.9716" y2="-1.16113" gradientUnits="userSpaceOnUse">
<stop stop-color="#53389E"/>
<stop offset="1" stop-color="#7F56D9"/>
</linearGradient>
<clipPath id="clip0_64_2532">
<rect width="139" height="24" fill="white" transform="translate(0 6)"/>
</clipPath>
</defs>
</svg>
