<?xml version="1.0" encoding="UTF-8"?>
<svg id="Layer_2" data-name="Layer 2" xmlns="http://www.w3.org/2000/svg" xmlns:xlink="http://www.w3.org/1999/xlink" viewBox="0 0 580.3 100.17">
  <defs>
    <style>
      .cls-1, .cls-2 {
        fill-rule: evenodd;
      }

      .cls-2 {
        fill: url(#linear-gradient);
      }
    </style>
    <linearGradient id="linear-gradient" x1="529.25" y1="100.17" x2="529.25" y2="0" gradientUnits="userSpaceOnUse">
      <stop offset="0" stop-color="#009ae3"/>
      <stop offset="1" stop-color="#01decf"/>
    </linearGradient>
  </defs>
  <g id="Layer_1-2" data-name="Layer 1">
    <g>
      <polygon points="24.95 83.17 39.18 83.17 39.18 14.34 64.25 14.34 64.25 1.21 0 1.21 0 14.34 24.95 14.34 24.95 83.17 24.95 83.17"/>
      <polygon points="72.56 83.17 86.79 83.17 86.79 47.73 126.2 47.73 126.2 83.17 140.43 83.17 140.43 1.21 126.2 1.21 126.2 34.59 86.79 34.59 86.79 1.21 72.56 1.21 72.56 83.17 72.56 83.17"/>
      <polygon class="cls-1" points="182.61 22.78 163.45 83.17 148.5 83.17 175.62 1.21 198.53 1.21 225.53 83.17 210.58 83.17 191.29 22.78 187.08 8.68 186.83 8.68 182.61 22.78 182.61 22.78"/>
      <polygon points="233.72 83.17 247.22 83.17 247.22 24.95 246.98 10.13 247.34 10.13 251.32 24.35 269.04 83.17 291.34 83.17 308.94 24.35 312.92 10.13 313.28 10.13 313.04 24.95 313.04 83.17 327.14 83.17 327.14 1.21 302.31 1.21 280.73 74.73 259.16 1.21 233.72 1.21 233.72 83.17 233.72 83.17"/>
      <polygon points="339.67 83.17 395.48 83.17 395.48 70.15 353.9 70.15 353.9 47.61 392.35 47.61 392.35 34.96 353.9 34.96 353.9 14.22 395.48 14.22 395.48 1.21 339.67 1.21 339.67 83.17 339.67 83.17"/>
      <path d="M427.91,47.37l12.42,2.77c7.83,1.69,12.17,4.94,12.17,10.85,0,6.99-5.79,11.09-15.55,11.09-12.78,0-17.96-7.23-18.32-15.67h-14.34c.96,14.58,10,27.96,32.06,27.96,18.44,0,30.62-9.16,30.62-24.47,0-13.62-9.52-20.61-22.66-23.26l-12.42-2.77c-7.71-1.69-12.17-4.58-12.17-10.49,0-6.87,5.79-11.09,15.43-11.09,12.78,0,17.84,7.23,18.08,15.67h14.47c-.97-14.58-9.89-27.96-32.06-27.96-18.2,0-30.38,9.16-30.38,24.47,0,13.62,9.52,20.25,22.66,22.9h0Z"/>
      <path class="cls-2" d="M478.2,83.17V1.21h14.22v81.97h-14.22ZM539.92,95.95v-11.57c-21.82-.72-37.49-17.12-37.49-42.19S518.83,0,541.36,0s38.93,16.51,38.93,42.19c0,23.63-13.86,39.42-33.51,41.83l28.69,3.26v12.9l-35.56-4.22h0ZM517.02,44c0,16.63,9.89,27.36,24.35,27.36s24.23-10.73,24.23-27.36v-3.62c0-16.63-9.76-27.36-24.23-27.36s-24.35,10.73-24.35,27.36v3.62h0Z"/>
    </g>
  </g>
</svg>